<mxfile host="Electron" modified="2024-07-22T00:24:00.793Z" agent="Mozilla/5.0 (X11; Linux x86_64) AppleWebKit/537.36 (KHTML, like Gecko) draw.io/24.5.3 Chrome/124.0.6367.207 Electron/30.0.6 Safari/537.36" etag="A2rd9NM8rsIAy6zHKnGK" version="24.5.3" type="device">
  <diagram name="Page-1" id="Gp2vqsBG_R4AcbW-s7Y2">
    <mxGraphModel dx="2284" dy="969" grid="1" gridSize="10" guides="1" tooltips="1" connect="1" arrows="1" fold="1" page="1" pageScale="1" pageWidth="850" pageHeight="1100" math="0" shadow="0">
      <root>
        <mxCell id="0" />
        <mxCell id="1" parent="0" />
        <mxCell id="jbFNQh9Z37VZQYsJPnzB-5" style="edgeStyle=orthogonalEdgeStyle;rounded=0;orthogonalLoop=1;jettySize=auto;html=1;entryX=0;entryY=0.5;entryDx=0;entryDy=0;" parent="1" source="jbFNQh9Z37VZQYsJPnzB-2" target="jbFNQh9Z37VZQYsJPnzB-3" edge="1">
          <mxGeometry relative="1" as="geometry" />
        </mxCell>
        <mxCell id="jbFNQh9Z37VZQYsJPnzB-9" style="edgeStyle=orthogonalEdgeStyle;rounded=0;orthogonalLoop=1;jettySize=auto;html=1;entryX=0.5;entryY=0;entryDx=0;entryDy=0;endArrow=none;endFill=0;" parent="1" source="jbFNQh9Z37VZQYsJPnzB-2" target="jbFNQh9Z37VZQYsJPnzB-8" edge="1">
          <mxGeometry relative="1" as="geometry" />
        </mxCell>
        <mxCell id="jbFNQh9Z37VZQYsJPnzB-2" value="Open Coding" style="rounded=1;whiteSpace=wrap;html=1;" parent="1" vertex="1">
          <mxGeometry x="160" y="160" width="120" height="60" as="geometry" />
        </mxCell>
        <mxCell id="jbFNQh9Z37VZQYsJPnzB-6" style="edgeStyle=orthogonalEdgeStyle;rounded=0;orthogonalLoop=1;jettySize=auto;html=1;entryX=0;entryY=0.5;entryDx=0;entryDy=0;" parent="1" source="jbFNQh9Z37VZQYsJPnzB-3" target="jbFNQh9Z37VZQYsJPnzB-4" edge="1">
          <mxGeometry relative="1" as="geometry" />
        </mxCell>
        <mxCell id="jbFNQh9Z37VZQYsJPnzB-12" style="edgeStyle=orthogonalEdgeStyle;rounded=0;orthogonalLoop=1;jettySize=auto;html=1;entryX=0.5;entryY=0;entryDx=0;entryDy=0;endArrow=none;endFill=0;" parent="1" source="jbFNQh9Z37VZQYsJPnzB-3" target="jbFNQh9Z37VZQYsJPnzB-10" edge="1">
          <mxGeometry relative="1" as="geometry" />
        </mxCell>
        <mxCell id="jbFNQh9Z37VZQYsJPnzB-3" value="Axial Coding" style="rounded=1;whiteSpace=wrap;html=1;" parent="1" vertex="1">
          <mxGeometry x="360" y="160" width="120" height="60" as="geometry" />
        </mxCell>
        <mxCell id="jbFNQh9Z37VZQYsJPnzB-13" style="edgeStyle=orthogonalEdgeStyle;rounded=0;orthogonalLoop=1;jettySize=auto;html=1;entryX=0.5;entryY=0;entryDx=0;entryDy=0;endArrow=none;endFill=0;" parent="1" source="jbFNQh9Z37VZQYsJPnzB-4" target="jbFNQh9Z37VZQYsJPnzB-11" edge="1">
          <mxGeometry relative="1" as="geometry" />
        </mxCell>
        <mxCell id="jbFNQh9Z37VZQYsJPnzB-17" style="edgeStyle=orthogonalEdgeStyle;rounded=0;orthogonalLoop=1;jettySize=auto;html=1;entryX=0;entryY=0.5;entryDx=0;entryDy=0;" parent="1" source="jbFNQh9Z37VZQYsJPnzB-4" target="jbFNQh9Z37VZQYsJPnzB-16" edge="1">
          <mxGeometry relative="1" as="geometry" />
        </mxCell>
        <mxCell id="jbFNQh9Z37VZQYsJPnzB-4" value="Selective Coding" style="rounded=1;whiteSpace=wrap;html=1;" parent="1" vertex="1">
          <mxGeometry x="560" y="160" width="120" height="60" as="geometry" />
        </mxCell>
        <mxCell id="jbFNQh9Z37VZQYsJPnzB-8" value="Extract codes from selected documents" style="rounded=0;whiteSpace=wrap;html=1;" parent="1" vertex="1">
          <mxGeometry x="160" y="290" width="120" height="60" as="geometry" />
        </mxCell>
        <mxCell id="jbFNQh9Z37VZQYsJPnzB-10" value="Build categories from codes" style="rounded=0;whiteSpace=wrap;html=1;" parent="1" vertex="1">
          <mxGeometry x="360" y="290" width="120" height="60" as="geometry" />
        </mxCell>
        <mxCell id="jbFNQh9Z37VZQYsJPnzB-11" value="Define higher order themes and their relationships" style="rounded=0;whiteSpace=wrap;html=1;" parent="1" vertex="1">
          <mxGeometry x="560" y="290" width="120" height="60" as="geometry" />
        </mxCell>
        <mxCell id="jbFNQh9Z37VZQYsJPnzB-15" style="edgeStyle=orthogonalEdgeStyle;rounded=0;orthogonalLoop=1;jettySize=auto;html=1;entryX=0;entryY=0.5;entryDx=0;entryDy=0;" parent="1" source="jbFNQh9Z37VZQYsJPnzB-14" target="jbFNQh9Z37VZQYsJPnzB-2" edge="1">
          <mxGeometry relative="1" as="geometry" />
        </mxCell>
        <mxCell id="jbFNQh9Z37VZQYsJPnzB-14" value="Selection of Documents" style="rounded=1;whiteSpace=wrap;html=1;" parent="1" vertex="1">
          <mxGeometry x="-40" y="160" width="120" height="60" as="geometry" />
        </mxCell>
        <mxCell id="jbFNQh9Z37VZQYsJPnzB-16" value="Textual description of themes, codes and categories" style="rounded=1;whiteSpace=wrap;html=1;" parent="1" vertex="1">
          <mxGeometry x="760" y="160" width="120" height="60" as="geometry" />
        </mxCell>
        <mxCell id="jbFNQh9Z37VZQYsJPnzB-18" value="" style="rounded=0;whiteSpace=wrap;html=1;fillColor=none;" parent="1" vertex="1">
          <mxGeometry x="-60" y="120" width="580" height="260" as="geometry" />
        </mxCell>
        <mxCell id="jbFNQh9Z37VZQYsJPnzB-19" value="Iterate until theoretical&amp;nbsp; saturation" style="text;html=1;align=center;verticalAlign=middle;whiteSpace=wrap;rounded=0;" parent="1" vertex="1">
          <mxGeometry x="-60" y="120" width="190" height="20" as="geometry" />
        </mxCell>
        <mxCell id="-MIheeKSSqmC9OlXrUha-1" style="edgeStyle=orthogonalEdgeStyle;rounded=0;orthogonalLoop=1;jettySize=auto;html=1;exitX=0.5;exitY=1;exitDx=0;exitDy=0;" parent="1" source="jbFNQh9Z37VZQYsJPnzB-18" target="jbFNQh9Z37VZQYsJPnzB-18" edge="1">
          <mxGeometry relative="1" as="geometry" />
        </mxCell>
      </root>
    </mxGraphModel>
  </diagram>
</mxfile>
